<?xml version="1.0" encoding="UTF-8"?>
<svg xmlns="http://www.w3.org/2000/svg" xmlns:xlink="http://www.w3.org/1999/xlink" width="32px" height="32px" viewBox="0 0 32 32" version="1.1">
<g id="surface1">
<path style=" stroke:none;fill-rule:evenodd;fill:rgb(99.607843%,99.607843%,99.607843%);fill-opacity:1;" d="M -0.0390625 -0.0390625 C 10.625 -0.0390625 21.292969 -0.0390625 31.960938 -0.0390625 C 31.960938 10.625 31.960938 21.292969 31.960938 31.960938 C 21.292969 31.960938 10.625 31.960938 -0.0390625 31.960938 C -0.0390625 21.292969 -0.0390625 10.625 -0.0390625 -0.0390625 Z M -0.0390625 -0.0390625 "/>
<path style=" stroke:none;fill-rule:evenodd;fill:rgb(21.176471%,1.176471%,64.313728%);fill-opacity:1;" d="M 11.960938 1.320312 C 14.546875 1.308594 17.132812 1.320312 19.71875 1.359375 C 23.730469 2.066406 26.089844 4.425781 26.800781 8.441406 C 26.851562 9.535156 26.851562 10.625 26.800781 11.71875 C 24.238281 14.332031 21.679688 16.945312 19.121094 19.558594 C 17.546875 18.160156 15.984375 16.746094 14.441406 15.320312 C 16.847656 12.683594 19.304688 10.082031 21.800781 7.519531 C 16.546875 7.507812 11.292969 7.464844 6.039062 7.398438 C 7.746094 5.625 9.441406 3.839844 11.121094 2.039062 C 11.371094 1.75 11.648438 1.507812 11.960938 1.320312 Z M 11.960938 1.320312 "/>
<path style=" stroke:none;fill-rule:evenodd;fill:rgb(69.411767%,61.56863%,86.274511%);fill-opacity:1;" d="M 24.601562 7.640625 C 24.191406 7.617188 23.792969 7.644531 23.398438 7.71875 C 23.566406 7.617188 23.765625 7.5625 24 7.558594 C 24.214844 7.558594 24.414062 7.585938 24.601562 7.640625 Z M 24.601562 7.640625 "/>
<path style=" stroke:none;fill-rule:evenodd;fill:rgb(98.431373%,98.039216%,99.215686%);fill-opacity:1;" d="M 24.601562 7.640625 C 24.511719 8.199219 24.429688 8.757812 24.359375 9.320312 C 24.945312 9.320312 25.535156 9.320312 26.121094 9.320312 C 25.996094 9.710938 25.945312 10.109375 25.960938 10.519531 C 25.347656 10.519531 24.734375 10.519531 24.121094 10.519531 C 24.058594 11.109375 23.976562 11.695312 23.878906 12.28125 C 23.480469 12.28125 23.078125 12.28125 22.679688 12.28125 C 22.742188 11.691406 22.824219 11.105469 22.921875 10.519531 C 22.359375 10.519531 21.800781 10.519531 21.238281 10.519531 C 21.265625 10.117188 21.320312 9.714844 21.398438 9.320312 C 21.988281 9.320312 22.574219 9.320312 23.160156 9.320312 C 23.222656 8.785156 23.300781 8.25 23.398438 7.71875 C 23.792969 7.644531 24.191406 7.617188 24.601562 7.640625 Z M 24.601562 7.640625 "/>
<path style=" stroke:none;fill-rule:evenodd;fill:rgb(66.666669%,58.431375%,85.09804%);fill-opacity:1;" d="M 5.160156 10.921875 C 5.132812 13.761719 5.160156 16.585938 5.238281 19.398438 C 5.21875 19.464844 5.175781 19.515625 5.121094 19.558594 C 5.054688 16.667969 5.066406 13.785156 5.160156 10.921875 Z M 5.160156 10.921875 "/>
<path style=" stroke:none;fill-rule:evenodd;fill:rgb(20.392157%,0.392157%,64.313728%);fill-opacity:1;" d="M 5.160156 10.921875 C 7.960938 10.90625 10.761719 10.921875 13.558594 10.960938 C 10.796875 13.789062 8.023438 16.601562 5.238281 19.398438 C 5.160156 16.585938 5.132812 13.761719 5.160156 10.921875 Z M 5.160156 10.921875 "/>
<path style=" stroke:none;fill-rule:evenodd;fill:rgb(20.784314%,0.392157%,64.313728%);fill-opacity:1;" d="M 12.039062 17.800781 C 15.792969 21.59375 19.511719 25.433594 23.199219 29.320312 C 23.25 29.394531 23.234375 29.460938 23.160156 29.519531 C 22.277344 30.082031 21.316406 30.453125 20.28125 30.640625 C 18.871094 30.765625 17.457031 30.792969 16.039062 30.71875 C 13.214844 27.945312 10.386719 25.171875 7.558594 22.398438 C 9.039062 20.851562 10.535156 19.320312 12.039062 17.800781 Z M 12.039062 17.800781 "/>
</g>
</svg>
