<?xml version="1.0" encoding="UTF-8"?>
<!DOCTYPE svg PUBLIC "-//W3C//DTD SVG 1.1//EN" "http://www.w3.org/Graphics/SVG/1.1/DTD/svg11.dtd">
<svg xmlns="http://www.w3.org/2000/svg" version="1.1" width="400px" height="400px" style="shape-rendering:geometricPrecision; text-rendering:geometricPrecision; image-rendering:optimizeQuality; fill-rule:evenodd; clip-rule:evenodd" xmlns:xlink="http://www.w3.org/1999/xlink">
<g><path style="opacity:1" fill="#fefefe" d="M -0.5,-0.5 C 132.833,-0.5 266.167,-0.5 399.5,-0.5C 399.5,132.833 399.5,266.167 399.5,399.5C 266.167,399.5 132.833,399.5 -0.5,399.5C -0.5,266.167 -0.5,132.833 -0.5,-0.5 Z"/></g>
<g><path style="opacity:1" fill="#3603a4" d="M 149.5,16.5 C 181.835,16.3334 214.168,16.5 246.5,17C 296.643,25.81 326.143,55.31 335,105.5C 335.667,119.167 335.667,132.833 335,146.5C 303,179.167 271,211.833 239,244.5C 219.325,226.99 199.825,209.323 180.5,191.5C 210.618,158.547 241.285,126.047 272.5,94C 206.831,93.8333 141.164,93.3333 75.5,92.5C 96.8494,70.3179 118.016,47.9845 139,25.5C 142.126,21.8592 145.626,18.8592 149.5,16.5 Z"/></g>
<g><path style="opacity:1" fill="#b19ddc" d="M 307.5,95.5 C 302.405,95.2213 297.405,95.5546 292.5,96.5C 294.571,95.1914 297.071,94.5248 300,94.5C 302.69,94.5029 305.19,94.8362 307.5,95.5 Z"/></g>
<g><path style="opacity:1" fill="#fbfafd" d="M 307.5,95.5 C 306.392,102.484 305.392,109.484 304.5,116.5C 311.833,116.5 319.167,116.5 326.5,116.5C 324.959,121.364 324.292,126.364 324.5,131.5C 316.833,131.5 309.167,131.5 301.5,131.5C 300.717,138.864 299.717,146.197 298.5,153.5C 293.5,153.5 288.5,153.5 283.5,153.5C 284.283,146.136 285.283,138.803 286.5,131.5C 279.5,131.5 272.5,131.5 265.5,131.5C 265.842,126.452 266.508,121.452 267.5,116.5C 274.833,116.5 282.167,116.5 289.5,116.5C 290.284,109.798 291.284,103.131 292.5,96.5C 297.405,95.5546 302.405,95.2213 307.5,95.5 Z"/></g>
<g><path style="opacity:1" fill="#aa95d9" d="M 64.5,136.5 C 64.1683,172.004 64.5016,207.337 65.5,242.5C 65.2172,243.289 64.7172,243.956 64,244.5C 63.169,208.331 63.3357,172.331 64.5,136.5 Z"/></g>
<g><path style="opacity:1" fill="#3401a4" d="M 64.5,136.5 C 99.5016,136.333 134.502,136.5 169.5,137C 134.966,172.367 100.299,207.534 65.5,242.5C 64.5016,207.337 64.1683,172.004 64.5,136.5 Z"/></g>
<g><path style="opacity:1" fill="#3501a4" d="M 150.5,222.5 C 197.42,269.923 243.92,317.923 290,366.5C 290.617,367.449 290.451,368.282 289.5,369C 278.445,376.02 266.445,380.686 253.5,383C 235.868,384.564 218.201,384.898 200.5,384C 165.167,349.333 129.833,314.667 94.5,280C 113.006,260.66 131.673,241.494 150.5,222.5 Z"/></g>
</svg>
